PathFileType	4	(X/Y/Z)	s09c0303.trc
DataRate	CameraRate	NumFrames	NumMarkers	Units	OrigDataRate	OrigDataStartFrame	OrigNumFrames
200	200	4	50	mm	200	1000	2000
Frame#	Time	racr			lacr			c7			jug			rlel			rdr			llel			ldr			s2			lic			ric			lasi			rasi			rpsi			lpsi			rgt			lgt			rth1			rth2			rth3			rth4			rlfc			rmfc			rsh1			rsh2			rsh3			rsh4			rlmal			rmmal			rcal			rtoe			rmt5			lth1			lth2			lth4			lth3			llfc			lmfc			llmal			lmmal			lcal			lmt5			lsh1			lsh2			lsh3			lsh4			ltoe			SBIKE			LBIKE			RBIKE			
		X1	Y1	Z1	X2	Y2	Z2	X3	Y3	Z3	X4	Y4	Z4	X5	Y5	Z5	X6	Y6	Z6	X7	Y7	Z7	X8	Y8	Z8	X9	Y9	Z9	X10	Y10	Z10	X11	Y11	Z11	X12	Y12	Z12	X13	Y13	Z13	X14	Y14	Z14	X15	Y15	Z15	X16	Y16	Z16	X17	Y17	Z17	X18	Y18	Z18	X19	Y19	Z19	X20	Y20	Z20	X21	Y21	Z21	X22	Y22	Z22	X23	Y23	Z23	X24	Y24	Z24	X25	Y25	Z25	X26	Y26	Z26	X27	Y27	Z27	X28	Y28	Z28	X29	Y29	Z29	X30	Y30	Z30	X31	Y31	Z31	X32	Y32	Z32	X33	Y33	Z33	X34	Y34	Z34	X35	Y35	Z35	X36	Y36	Z36	X37	Y37	Z37	X38	Y38	Z38	X39	Y39	Z39	X40	Y40	Z40	X41	Y41	Z41	X42	Y42	Z42	X43	Y43	Z43	X44	Y44	Z44	X45	Y45	Z45	X46	Y46	Z46	X47	Y47	Z47	X48	Y48	Z48	X49	Y49	Z49	X50	Y50	Z50	
1000	5.0000	722.191845	1360.164613	-112.466553	733.106374	1295.648202	-453.754605	715.969402	1377.847636	-277.249442	733.031104	1247.075176	-264.035558	623.690460	1116.144903	-35.750030	726.576610	881.738761	-67.219559	591.463717	1070.217819	-550.923588	715.417673	878.769905	-458.517245	251.542695	1166.917681	-266.139739	391.048298	1119.908133	-401.779158	391.633290	1174.452639	-113.987125	421.130065	1064.641472	-369.442016	421.463061	1112.163335	-127.598724	279.034595	1207.422385	-209.368214	285.589605	1190.132317	-320.226739	358.883797	1050.834654	-50.487412	321.612202	989.332977	-419.215378	457.981272	947.956683	-54.194202	532.054659	902.639313	-67.303282	569.799786	822.685178	-70.558166	549.367821	919.253004	-95.408477	595.347474	724.483908	-97.175358	568.421745	709.756116	-193.290790	495.748251	698.051873	-65.897585	424.827350	643.709768	-76.319992	338.337717	632.161790	-72.058796	436.977598	619.653874	-105.035885	244.051298	588.196997	-68.646994	253.323244	597.280981	-144.838767	171.099995	629.597933	-102.356697	314.051463	409.727196	-136.566626	259.334473	463.122595	-63.448799	360.380257	861.378036	-418.860249	407.782334	791.500394	-410.240786	442.499622	802.547465	-401.260159	413.728432	701.255767	-401.713556	431.613658	608.587610	-387.853749	435.184246	590.188425	-293.418025	296.605480	272.252753	-413.752628	316.948025	274.857172	-346.391896	223.116490	259.664577	-377.294477	367.064077	153.310734	-432.745509	386.018203	519.009344	-415.784862	379.790424	432.787982	-412.251942	330.323570	359.042064	-413.775614	405.545692	424.726613	-382.133706	456.212363	142.767905	-363.889078	-64.644059	850.570079	-242.008415	21.146824	83.510522	-442.392199	21.149234	84.008581	-43.986600	
1001	5.0050	718.240987	1360.710443	-107.707929	736.407932	1295.268336	-448.661950	715.132748	1377.873831	-272.732356	732.913973	1246.902431	-259.055480	620.395917	1115.217445	-34.240767	725.584460	881.949568	-67.497279	595.714551	1071.677790	-551.019245	715.855940	878.423498	-458.904395	251.264446	1166.675641	-271.614327	394.020863	1117.450222	-403.085888	388.174292	1176.011923	-116.597144	422.874152	1062.183340	-369.891772	419.420449	1113.524323	-128.386133	277.262638	1206.378546	-215.059151	286.300930	1187.902250	-326.046031	355.774402	1052.490135	-53.195081	323.642270	986.671169	-421.286182	458.102217	952.724964	-56.051268	533.513462	909.163212	-68.411298	573.399141	830.330111	-70.468663	550.939806	926.031788	-96.665171	601.782548	731.992157	-97.146647	575.717987	717.028380	-193.521179	503.006754	704.902000	-66.309168	432.393773	650.219594	-76.295698	346.110386	637.786350	-72.263154	444.850677	625.866157	-104.984772	251.942620	592.517154	-68.984780	261.164467	601.832310	-145.088966	177.999259	632.738626	-102.403634	324.949162	415.530601	-136.679110	269.272354	468.006492	-63.591793	359.294242	859.402081	-419.360146	404.421967	788.275580	-410.025193	439.529366	798.415076	-399.541326	407.851533	697.807082	-401.121425	423.569443	605.051899	-386.733757	424.028129	586.675697	-291.860759	288.201134	268.909056	-413.830823	308.645415	270.852905	-346.614138	214.868700	257.500280	-377.190503	357.153112	148.810012	-432.765997	377.940019	515.634580	-415.414279	371.712008	429.485355	-411.796788	322.297045	355.765765	-413.935030	396.998144	421.469668	-381.268191	446.246214	137.132889	-363.405385	-64.691835	850.570942	-241.980017	21.157232	83.608855	-442.321480	21.131328	84.014915	-43.986118	
1002	5.0100	714.252796	1361.047464	-102.877296	739.971452	1295.012761	-444.107967	714.640788	1377.976839	-268.053183	732.422287	1246.902465	-254.104860	617.236283	1114.002015	-32.984556	725.155783	882.241641	-67.339612	599.822931	1073.160638	-550.795517	716.408898	878.261616	-459.409792	250.702146	1165.002958	-277.229891	397.101218	1115.113672	-404.233920	385.359769	1177.833315	-118.948621	424.888430	1059.702099	-370.157449	417.136741	1114.745568	-129.211597	275.458154	1205.286972	-220.702474	287.181828	1185.752720	-330.381960	352.720358	1054.108892	-55.944795	325.894850	984.386585	-423.645292	458.057068	957.504455	-57.767048	534.577840	915.742139	-69.380045	576.240805	838.015727	-70.265825	551.976443	933.003366	-97.254995	608.448420	739.730527	-96.511877	582.522353	725.765760	-194.736698	509.985966	711.837138	-66.351829	439.925186	656.380011	-76.313538	353.746338	643.111040	-72.469631	452.762095	632.044008	-104.787397	259.769196	596.344500	-69.452912	269.150373	605.842235	-145.472646	184.814175	635.293713	-102.589216	336.549429	421.267331	-137.213110	279.457825	472.561347	-63.735163	358.355495	857.926005	-420.008859	401.438519	785.646063	-409.701256	436.612474	794.782003	-398.127032	402.190896	695.189456	-401.101032	415.506689	602.097555	-385.910519	413.270738	584.507139	-290.979442	279.731316	266.222233	-413.890644	300.161598	267.497473	-346.848508	206.636227	255.976155	-377.296981	346.772615	144.786067	-432.805130	369.916455	512.859474	-415.198149	363.613207	426.741672	-411.397824	314.181780	353.006443	-413.940823	388.528091	418.887644	-380.641895	436.023907	131.996917	-362.988030	-64.730298	850.541434	-242.041292	21.139515	83.571835	-442.315815	21.140719	83.993878	-43.977791	
1003	5.0150	710.395235	1361.210372	-97.963728	742.916014	1294.915253	-438.362884	713.867370	1377.946675	-263.221774	731.896647	1246.995028	-248.905217	614.039351	1112.735559	-31.828117	724.662046	882.621489	-67.079376	603.782504	1074.637705	-550.240316	716.682080	878.173832	-459.391295	250.395783	1163.230567	-282.985204	400.248197	1112.942536	-405.228295	382.149004	1179.369093	-121.187958	427.074926	1057.344305	-370.060171	414.896515	1116.158968	-130.030694	274.748450	1204.453576	-227.692114	288.138894	1183.752767	-335.199231	349.711025	1055.810409	-58.646115	328.354042	982.441126	-426.074023	457.885741	962.256994	-59.397589	535.332047	922.167280	-70.364636	579.021199	845.572721	-70.296138	552.787176	939.772708	-97.930757	614.756852	748.053815	-95.845110	589.702313	732.184436	-193.325821	516.917319	718.735171	-65.893808	447.278379	662.301124	-76.226003	361.267070	647.986575	-72.699985	460.361139	638.044047	-104.597072	267.476574	599.522603	-69.950443	276.827792	609.355408	-145.825820	191.660740	637.037918	-102.937261	347.947900	426.614089	-137.019109	289.826332	476.560103	-63.919231	357.547108	856.973141	-420.800046	398.577385	783.593554	-409.808657	433.655773	791.750324	-397.230377	397.066856	693.212134	-401.959927	407.573045	599.773470	-385.830909	403.278421	582.385185	-290.533355	271.410531	264.074455	-413.870584	291.534541	264.829861	-347.101397	198.146231	255.158324	-377.243011	336.119095	141.471508	-432.823295	362.108083	510.618859	-415.166647	355.494837	424.473015	-411.202945	305.819026	350.981690	-414.178993	380.030529	416.696708	-380.100557	425.570478	127.689234	-362.709858	-64.739396	850.535703	-242.088616	21.105521	83.468765	-442.389618	21.106684	83.986202	-43.993894	
